<svg version="1.1" class="envoy-logo" xmlns="http://www.w3.org/2000/svg" xmlns:xlink="http://www.w3.org/1999/xlink" x="0px" y="0px" viewBox="0 0 190.765 56.684" enable-background="new 0 0 190.765 56.684" xml:space="preserve">
<rect x="-620.262" y="696.062" fill="none" width="1152" height="49"></rect>
<path d="M168.773,56.684V32.572L157.054,0h11.259l5.689,15.814L179.54,0h11.225l-11.397,32.549v24.135H168.773z M29.018,56.684
	V46.09H10.594V33.654H23.26V23.06H10.594V10.624h18.424V0.029H0v56.654H29.018z M102.512,56.684L113.427,0h-10.789l-5.609,29.056
	L91.42,0H80.631l10.916,56.684H102.512z M135.723,56.684c8.952,0,16.236-7.283,16.236-16.236V16.266
	c0-8.952-7.284-16.236-16.236-16.236c-8.953,0-16.236,7.284-16.236,16.236v24.182C119.486,49.4,126.77,56.684,135.723,56.684
	L135.723,56.684z M135.723,10.624c3.111,0,5.642,2.53,5.642,5.642v24.182c0,3.111-2.53,5.643-5.642,5.643s-5.643-2.531-5.643-5.643
	V16.266C130.08,13.154,132.611,10.624,135.723,10.624L135.723,10.624z M71.656,56.684V0.026H61.062v28.177L49.814,0.026H39.184
	v56.657h10.594V28.51l11.246,28.174H71.656z"></path>
</svg>